PathFileType	4	(X/Y/Z)	C:\Users\Basilio\Documents\Thesis Gigler\squatting_fais\c3dfiles\076\SJ_pre5\markers_experimental.trc
DataRate	CameraRate	NumFrames	NumMarkers	Units	OrigDataRate	OrigDataStartFrame	OrigNumFrames
200.000000	200.000000	4	61	mm	200.000000	805	1289
Frame#	Time	FHD			LBHD			RBHD			C7			T10			CLAV			LSHO			LUUPA			LMUPA			LDUPA			LLEP			LMEP			LRAD			LUL			LRFIN			RSHO			RUPA1			RMUPA			RDUPA			RLEP			RMEP			RRAD			RUL			RUFIN			LASI			RASI			USACR			LSACR			RSACR			LTHI1			LTHI2			LTHI3			LTHI4			LLFC			LMFC			LTIB1			LTIB2			LTIB3			LTIB4			LLMAL			LMMAL			LHEE			LMT1			LMT2			LMT5			RTHI			RTHI2			RTHI3			RTHI4			RLFC			RMFC			RTIB1			RTIB2			RTIB3			RTIB4			RLMAL			RMMAL			RHEE			RMT1			RMT2			RMT5			
		X1	Y1	Z1	X2	Y2	Z2	X3	Y3	Z3	X4	Y4	Z4	X5	Y5	Z5	X6	Y6	Z6	X7	Y7	Z7	X8	Y8	Z8	X9	Y9	Z9	X10	Y10	Z10	X11	Y11	Z11	X12	Y12	Z12	X13	Y13	Z13	X14	Y14	Z14	X15	Y15	Z15	X16	Y16	Z16	X17	Y17	Z17	X18	Y18	Z18	X19	Y19	Z19	X20	Y20	Z20	X21	Y21	Z21	X22	Y22	Z22	X23	Y23	Z23	X24	Y24	Z24	X25	Y25	Z25	X26	Y26	Z26	X27	Y27	Z27	X28	Y28	Z28	X29	Y29	Z29	X30	Y30	Z30	X31	Y31	Z31	X32	Y32	Z32	X33	Y33	Z33	X34	Y34	Z34	X35	Y35	Z35	X36	Y36	Z36	X37	Y37	Z37	X38	Y38	Z38	X39	Y39	Z39	X40	Y40	Z40	X41	Y41	Z41	X42	Y42	Z42	X43	Y43	Z43	X44	Y44	Z44	X45	Y45	Z45	X46	Y46	Z46	X47	Y47	Z47	X48	Y48	Z48	X49	Y49	Z49	X50	Y50	Z50	X51	Y51	Z51	X52	Y52	Z52	X53	Y53	Z53	X54	Y54	Z54	X55	Y55	Z55	X56	Y56	Z56	X57	Y57	Z57	X58	Y58	Z58	X59	Y59	Z59	X60	Y60	Z60	X61	Y61	Z61	

806	4.025	-19.70328140258789	1787.329833984375	-810.0111083984377	-162.2332458496094	1741.669189453125	-914.4758911132815	-155.9927673339844	1740.635864257813	-762.1213989257814	-228.0405426025391	1621.470947265625	-851.920593261719	-277.2078552246094	1315.364990234375	-923.8743896484377	-91.7355194091797	1543.164306640625	-848.483337402344	-137.5381622314453	1598.263671875	-1017.950927734375	-143.2562866210938	1473.013305664063	-1174.256958007813	-137.2201690673828	1424.439331054688	-1163.51611328125	-154.9170379638672	1422.160888671875	-1221.82373046875	-173.5632476806641	1382.543701171875	-1259.670776367188	-258.4602050781251	1381.653442382813	-1236.598876953125	-222.8630523681641	1188.545043945313	-1122.2734375	-188.4853820800782	1151.360107421875	-1161.9599609375	-172.8320922851563	1186.34912109375	-1091.479858398438	-181.4826965332032	1543.437622070313	-694.0975952148439	-260.2751770019532	1405.918090820313	-578.9389648437501	-235.7858276367188	1362.425537109375	-579.8773193359376	-285.5960693359376	1346.549560546875	-548.9055175781251	-296.7996215820313	1273.536376953125	-536.9141845703126	-361.8008117675782	1280.84326171875	-597.6328735351564	-260.0768127441407	1158.837524414063	-747.1007690429689	-199.9973144531251	1164.251098632813	-754.3163452148439	-231.1876525878907	1110.956420898438	-709.3395385742189	-138.0880584716797	1125.711059570313	-1036.481689453125	-144.4687194824219	1115.373779296875	-831.3195800781252	-290.6313476562501	1212.979248046875	-933.9385375976565	-301.4880065917969	1188.195678710938	-964.9952392578127	-305.8733520507813	1181.85888671875	-908.2760009765627	-223.4243164062501	974.553894042969	-1129.650756835938	-190.2520141601563	895.8096313476565	-1133.46826171875	-142.3444976806641	899.777526855469	-1119.226928710938	-217.6725769042969	841.946960449219	-1123.991455078125	-207.0523834228516	683.2359619140626	-1108.183349609375	-162.7765808105469	672.2860107421876	-996.919372558594	-166.0714416503907	533.7406616210939	-1054.931274414063	-198.8488769531251	485.7637634277345	-1121.527465820313	-166.4887390136719	486.0130615234376	-1089.9638671875	-177.5403137207032	406.9802856445314	-1061.544921875	-250.6435852050782	286.8288879394532	-1111.105712890625	-204.890853881836	292.7078247070313	-1038.238891601563	-297.6479187011719	281.1845703125001	-1055.601928710938	-113.6226043701172	185.6161193847657	-1065.0869140625	-116.379135131836	179.9843902587891	-1103.869506835938	-147.7210998535157	173.4717407226563	-1147.92578125	-236.772201538086	869.875427246094	-749.5148315429689	-195.3565979003907	817.0979003906252	-740.9747314453126	-161.3978118896485	821.9471435546877	-747.3533325195314	-216.3322143554688	738.0186157226564	-754.2578125000001	-210.5523071289063	680.1349487304689	-753.0988159179689	-169.4224853515625	669.0750122070314	-864.4542236328127	-168.7357635498047	545.4970092773439	-757.7307128906251	-244.4271087646485	470.0316467285157	-738.1133422851564	-197.8271789550782	464.8120727539064	-739.3720703125001	-182.5723876953125	415.6202697753907	-767.9034423828126	-261.3110656738282	283.5662841796876	-741.9288330078126	-219.5846557617188	286.8086853027344	-816.120788574219	-307.3802795410157	286.2155761718751	-796.518005371094	-141.8872375488282	167.7340850830078	-783.6790771484377	-140.3738708496094	171.0889282226563	-737.6760253906251	-183.844711303711	165.9143371582032	-695.0985717773439	
807	4.03	-18.57907295227051	1776.969482421875	-809.1549072265627	-161.7598266601563	1730.287963867188	-913.435241699219	-154.8679504394532	1729.727172851563	-761.2271118164064	-226.3403778076172	1611.012329101563	-851.3760986328127	-277.4855346679688	1305.291748046875	-923.725769042969	-90.47534942626955	1532.203735351563	-847.7989501953127	-135.7940826416016	1587.585571289063	-1017.213256835938	-142.3589935302735	1462.924560546875	-1173.8056640625	-137.6321258544922	1414.361694335938	-1163.376220703125	-154.4440612792969	1412.277221679688	-1221.595947265625	-173.5711059570313	1372.755493164063	-1259.537475585938	-258.2927856445313	1372.46728515625	-1236.257934570313	-223.273178100586	1178.733276367188	-1122.334838867188	-189.0953521728516	1141.478881835938	-1161.972778320313	-174.214828491211	1176.400268554688	-1091.669921875	-180.1477813720703	1532.926391601563	-693.7775878906251	-259.8208618164063	1395.694091796875	-578.6329345703126	-235.5382690429688	1352.082153320313	-579.4709472656251	-285.3168945312501	1336.432861328125	-548.6694335937501	-296.9228820800782	1263.69091796875	-536.9788818359376	-362.0514526367188	1271.036865234375	-597.5629882812501	-260.7866821289063	1148.936767578125	-747.0227050781251	-200.8302154541016	1154.0849609375	-754.6210937500001	-232.0628967285157	1100.90869140625	-709.3917846679689	-139.2575836181641	1115.527465820313	-1036.7578125	-145.6495056152344	1104.958618164063	-831.6489257812502	-291.1771240234376	1203.102783203125	-934.032897949219	-302.2312011718751	1178.2841796875	-965.200866699219	-306.7444458007813	1172.230224609375	-908.4672851562502	-223.3887786865235	964.6756591796877	-1130.50732421875	-189.719970703125	886.2307128906252	-1134.481323242188	-141.8691101074219	890.563415527344	-1119.692626953125	-216.8457489013672	832.1172485351565	-1124.996337890625	-204.6406555175782	673.6682739257814	-1109.333984375	-161.0228576660157	662.6441650390626	-998.0211181640627	-163.0865936279297	524.4995117187501	-1056.31591796875	-196.6405334472657	476.4006958007814	-1122.60693359375	-163.3797454833985	476.7297668457032	-1091.043579101563	-174.498779296875	397.7434692382814	-1062.786743164063	-246.8593902587891	276.7393798828126	-1111.811889648438	-201.1920776367188	283.3874206542969	-1038.97412109375	-293.5797119140626	270.4884948730469	-1056.669677734375	-108.7688217163086	176.9988250732422	-1064.304443359375	-111.4246139526367	171.3148345947266	-1103.161010742188	-143.1136779785157	164.1115264892578	-1147.4296875	-237.2918701171876	859.843688964844	-749.5222167968751	-195.4527740478516	807.3521118164065	-740.3804931640626	-161.5633697509766	812.2280273437502	-746.7763061523439	-216.0615234375001	728.0042724609376	-753.7011718750001	-209.7478332519532	670.2534790039064	-752.1625976562501	-167.5284576416016	659.2079467773439	-863.2646484375002	-166.8262939453125	535.8130493164064	-756.2129516601564	-242.3733978271485	460.1895751953126	-736.7628784179689	-195.7427368164063	455.0743408203126	-737.7365722656251	-180.5180358886719	406.0540466308595	-766.5042114257814	-258.6496276855469	273.5074768066407	-740.3853149414064	-217.1266784667969	277.2483825683594	-814.606140136719	-304.7936096191407	275.9218750000001	-795.1871337890627	-138.4246368408203	158.5744323730469	-782.4119873046877	-136.4675445556641	161.9764556884766	-736.1694946289064	-180.7384185791016	155.8333282470703	-693.9830322265626	
808	4.035	-17.7302303314209	1766.64794921875	-808.2490234375002	-159.9993591308594	1719.800415039063	-913.0771484375002	-153.9624328613282	1718.567260742188	-761.4968872070314	-224.6097564697266	1600.330200195313	-850.960632324219	-277.4825439453126	1295.325317382813	-923.5262451171877	-89.13820648193361	1520.939331054688	-847.363464355469	-133.9353637695313	1576.521850585938	-1016.382019042969	-142.0615844726563	1452.492919921875	-1173.54052734375	-135.7557830810547	1403.772705078125	-1163.277709960938	-154.0455627441407	1402.17431640625	-1221.508056640625	-173.535385131836	1362.822509765625	-1259.415161132813	-258.1824951171876	1362.993286132813	-1236.01025390625	-223.8917541503907	1168.9189453125	-1122.494140625	-190.3666076660157	1131.549072265625	-1162.435546875	-174.0332336425782	1166.142333984375	-1091.560546875	-178.8029327392578	1522.032104492188	-693.3397216796876	-259.1035156250001	1385.291870117188	-578.3256225585939	-235.2191772460938	1341.615112304688	-579.4635009765626	-285.1084899902344	1325.960205078125	-548.4755249023439	-297.0085754394532	1253.542114257813	-536.9509887695314	-362.2115783691407	1260.938110351563	-597.2670288085939	-261.7392272949219	1138.715576171875	-747.2455444335939	-201.5384063720704	1143.591552734375	-754.9044189453126	-232.9048919677735	1090.718994140625	-709.5599365234376	-139.9409942626953	1105.25439453125	-1036.854736328125	-146.965316772461	1094.302978515625	-831.907653808594	-291.2379150390626	1193.080322265625	-934.570739746094	-302.1752929687501	1168.585571289063	-965.7775878906252	-307.6556091308594	1161.90771484375	-908.6841430664065	-223.4324493408204	954.6313476562502	-1131.305053710938	-189.1031036376953	876.6291503906252	-1135.324951171875	-141.1171875	881.1460571289065	-1120.197998046875	-215.8334197998047	822.3312988281252	-1126.029418945313	-202.8406829833985	664.0445556640626	-1110.834350585938	-158.905517578125	653.0958251953126	-999.1838378906252	-160.1533660888672	515.0801391601564	-1057.62109375	-193.3656463623047	466.6983947753907	-1124.035888671875	-160.3875427246094	467.2026367187501	-1092.323364257813	-171.0758361816407	388.2775268554689	-1063.855346679688	-243.2961883544922	266.6258850097657	-1112.7265625	-197.7229003906251	273.9298706054688	-1039.823608398438	-290.0896301269532	260.0776977539063	-1057.506469726563	-105.0072174072266	168.0291290283203	-1063.719604492188	-106.9088668823242	161.8966674804688	-1102.263793945313	-138.2066802978516	154.1293182373047	-1146.544311523438	-237.6688995361329	849.640563964844	-749.3551635742189	-195.8806152343751	797.4959106445315	-740.0194702148439	-161.8408508300782	802.6643066406252	-746.1779785156251	-215.6668548583985	717.8661499023439	-753.0176391601564	-208.6318969726563	660.2980957031251	-751.2623291015626	-166.2416534423828	648.8696289062501	-862.1667480468752	-164.6526489257813	526.0843505859376	-754.7126464843751	-240.2283325195313	450.0994567871095	-735.5390014648439	-193.5702362060547	445.2146606445314	-736.3995971679689	-177.9089660644532	396.0637817382814	-764.8609008789064	-256.0516052246094	263.2882995605469	-738.9623413085939	-214.5741424560547	267.3682861328126	-813.125427246094	-302.2929687500001	265.4964294433594	-793.7220458984377	-135.3361053466797	149.1264953613282	-781.3616333007815	-134.10302734375	151.882553100586	-735.3422241210939	-177.7888488769532	145.6836395263672	-692.9589233398439	
809	4.04	-16.82097816467286	1755.8984375	-807.3236083984377	-158.7705230712891	1708.237915039063	-912.5961914062502	-152.5686340332032	1707.053955078125	-760.0027465820314	-222.8702239990235	1589.383056640625	-850.476745605469	-277.6394653320313	1284.92724609375	-923.3986816406252	-87.81015014648439	1509.368774414063	-846.906188964844	-132.658935546875	1565.418334960938	-1016.113037109375	-141.0820617675782	1441.800170898438	-1173.01806640625	-135.3927612304688	1393.103881835938	-1163.260620117188	-153.2754974365235	1391.528930664063	-1221.14599609375	-173.5034332275391	1352.481567382813	-1259.24951171875	-258.2680053710938	1352.84130859375	-1235.760864257813	-224.8650665283204	1158.639282226563	-1122.45849609375	-190.8908843994141	1121.132202148438	-1162.417114257813	-174.705062866211	1155.691284179688	-1091.671264648438	-177.5156555175782	1510.99755859375	-692.9993896484376	-258.6563415527344	1374.483276367188	-578.0885620117189	-234.8331909179688	1330.562255859375	-579.0949707031251	-284.7860717773438	1315.375732421875	-548.2136840820314	-297.1879882812501	1242.772216796875	-536.7504272460939	-362.2653503417969	1250.621337890625	-597.2590942382814	-262.5853881835938	1128.221435546875	-747.3541259765626	-202.4374542236329	1133.015747070313	-755.0788574218751	-233.8398895263672	1080.166137695313	-709.6070556640626	-140.7846221923828	1094.545288085938	-1037.223754882813	-148.2991485595703	1083.418579101563	-831.9878540039065	-291.8773498535157	1182.882202148438	-934.811706542969	-302.9790649414063	1158.24365234375	-966.0283813476565	-308.4251403808594	1151.733642578125	-908.9207153320315	-223.4152526855469	944.6755981445315	-1132.260131835938	-188.6060791015625	866.6464843750002	-1136.275634765625	-140.8231201171875	871.6756591796877	-1120.733032226563	-214.7766876220704	812.1712646484377	-1127.19580078125	-200.3308563232422	653.9845581054689	-1112.174438476563	-156.941635131836	643.2240600585939	-1000.51318359375	-157.2581634521485	505.3367309570314	-1059.096557617188	-190.3438110351563	456.8087158203126	-1125.524536132813	-157.1600341796875	457.5990295410157	-1093.7109375	-167.7933044433594	378.6629333496094	-1065.081787109375	-240.3846435546876	255.8209838867188	-1113.520263671875	-194.1744995117188	264.5111389160157	-1040.519165039063	-286.8019104003907	249.641342163086	-1058.1083984375	-100.9896545410157	158.8048095703125	-1062.789306640625	-102.7301864624024	152.3397674560547	-1101.238891601563	-134.710922241211	143.7093658447266	-1145.8818359375	-238.2854766845704	839.1779785156252	-749.3280029296876	-195.8137207031251	787.4912719726565	-739.2316284179689	-161.9808044433594	792.8090820312502	-745.2179565429689	-215.1594390869141	707.5843505859376	-752.2757568359376	-207.3123626708985	649.9401245117189	-750.4355468750001	-164.4191436767578	638.7445068359376	-861.1712646484377	-162.3854370117188	515.8539428710939	-753.4150390625001	-237.8693542480469	440.058074951172	-734.3761596679689	-191.3173370361328	434.9978332519532	-735.2120971679689	-175.6701965332032	385.9881896972657	-763.6874389648439	-253.735092163086	252.7661437988282	-737.6586303710939	-212.1974029541016	257.1919860839844	-811.7957153320315	-299.9289855957032	255.129379272461	-792.3389892578127	-132.2870330810547	139.3638153076172	-780.430847167969	-131.0073547363282	141.7958374023438	-734.5208129882814	-174.7659454345703	135.1974792480469	-692.0930175781251	
